<svg xmlns="http://www.w3.org/2000/svg" xml:space="preserve" width="724" height="655.8"><g style="fill:#fff"><path d="M383.3 67c-2.5 1.4-4.8 3.3-7.3 4.8-1.2.4-1.2 1.4-.5 2.3 1.5 2.9 2.6 6 4.5 8.7 2.8-2 5.6-4 8.7-5.3-1.4-2-3-4.2-3.9-6.6-.7-1.2-.5-3-1.4-4zM399.3 62.3c-2.8 1-5.3 2.8-8 3.9.7 3 2.6 5.7 3.6 8.7.5.7.6 2.2 1.4 2.5 2.5-2 5.5-3.4 8.2-4.9a25.3 25.3 0 0 1-4-7.2c-.5-1-.3-2.3-1-3h-.2zM416.8 60.3c-2.7 1.4-5.7 2.2-8.5 3.2 1 3.8 2.4 7.5 3.6 11.2 3-1 5.7-2.5 8.8-3a27.8 27.8 0 0 1-3.5-10.5c-.2-.2 0-.9-.4-.9zM433.4 61.6c-2.6.7-5.4 1.2-7.9 2.1l2 11.1c3-.7 6-1.8 9-2.4-2.5-3-2.2-7.2-2.4-11l-.7.2zM449.8 64.7l-8 .7c.7 3.6.4 7.4.6 11 2.9-.6 5.9-.4 8.7-.8-.6-3.5-.5-7.2-.2-10.7-.3-.3-.7-.1-1-.2zM459 69.1c-1.5 0-.6 2.1-1 3 0 2.5-.8 5-1 7.3 2.6.7 5.4.4 8 1.1.8-2.4.3-5.2 1.4-7.6.2-.9 1.4-2.8-.3-3-2.3-.4-4.7-.6-7-.8zM473.2 77.4c-.8 2.8-2.2 5.4-3.5 8 2 .7 4.2 1 6.1 1.8.8 0 2.3 1.5 2.5.1.8-3.3 2.3-6.3 4.1-9.2-.8-.7-2.4-.4-3.5-.8-1.7-.4-3.5-1-5.3-1.2l-.4 1.3zM488.6 85.5c-1.2 1-2 2.5-3.3 3.6l-4.2 4.2c2.7.7 4 3.5 6.4 4.8 1.8-.6 2.9-2.5 4.5-3.5.8-.8 2.2-1.6 2.8-2.6l-6-6.5h-.2zM501.4 98.1c-2.5 1.5-4.8 3.4-7.5 4.6-.7.6-1.8.5-2.4 1 1 1.6 2.7 3 3.6 4.8.7.9.9 2.3 1.8 2.9 2.8-2 6-3.3 8.8-5.3-1.1-2.6-2.8-5-3.8-7.8a.6.6 0 0 0-.5-.2zM509.3 114.3c-3.5 1.3-7.1 3-10.8 3.7 1.3 2.7 2.6 5.4 3 8.4 1.2.5 2.6-.6 3.7-.8 2.2-.8 4.5-1.3 6.7-1.8.7-1.4-.5-3.2-.6-4.6-.7-1.6-.4-3.7-1.6-4.9h-.4zM513.3 132.8c-3.7.6-7.5 1.5-11.3 1.3.7 3 .4 6.2.5 9.3 3.7-1 7.5-1 11.3-1.2-.2-3.1 0-6.4-.4-9.4zM501.2 150.3c-.6 2.6-1 5.3-2.1 7.7-.7 1.4 1.4 1 2.2 1.3 2.9.4 6 1 8.8 1.8 1.2-2.1 1-4.8 2.1-7 .1-.8 1.4-2.4-.1-2.2-3.3-.2-6.6-.3-9.7-1.4l-1.2-.2zM495.4 166c-.6.5-.9 1.6-1.5 2.2-1 1.5-2.5 2.7-3.4 4.3 2.4 1.7 5.2 3 7.7 4.6.8.6 1.7 1.1 2-.2 1.4-2.5 3.4-4.6 5.7-6-3.2-2-6.9-3-10.1-4.8a1 1 0 0 0-.4-.1zM484 178.6c-1.5 1.7-3.8 2.6-5.6 4 1.7 2.6 4.7 4 6.9 6.2 2.6-1.5 5-3.8 7.9-4.8-3.1-1.3-6-3.1-8.1-5.6-.5-.8-.6-.2-1 .2zM471.3 186c-1.6 1-3.8 1.1-5.2 2.1.6.6 1 1.5 0 2 2.6 0 3.8 2.8 5.6 4 .9.4 1.7-.9 2.5-1.1 1.3-1 3.2-1.2 4.3-2.2-2.3-1.4-4.2-3.3-6.1-5.2l-1 .5zM460 188.5l-3 1.4c-.8.1-2.4.2-2.5 1.1 1.4 1.3 2.3 3 3.6 4.4 2.1 0 4.2-.7 6.4-.7-1.2-1.8-3.2-3.5-4-5.7-.2 0-.2-.5-.4-.5zM444.6 190.1a6 6 0 0 0 2.2 3.6c1.5.7 3.5.4 4.9 1.3-.7-1.4-1.7-2.9-1.4-4.6.6-2-2.1-.9-3.4-1.2-.9.2-3-.8-2.3 1zM436.2 186.5c-.8.1-2.2.2-2.5 1 1.3 1 1.2 3 2 4.3 1.5.2 3.1.7 4.5.8-.7-1.6 0-3.5 0-5.1-.9-1-2.7-.9-4-1zM426.3 183c-.7.2-2 .5-2.2 1.3 1.5.8.8 3 1.7 4.1 1.3 0 2.6 0 3.7.4l.7-5.2-3.9-.6zM420.8 177.3l-4.6 1.2c.3 1.2 1.3 2.2 1.2 3.6 0 .7 0 2.5 1.1 1.7 1.4-1 1.7-3 3.6-3.1 1-.3-.3-1.5-.4-2.1-.3-.4-.4-1.2-1-1.3zM413.7 170.7c-2 0-4.3.4-5.1 2.5-.1.6-1.2 1.5-.8 2 1.2 0 2.8-.7 3.4.8.3.5 1.1 1.2 1.1.3 1-1.6 2.7-2.3 3.8-3.5-.3-.9-1.3-2.2-2.4-2.1zM409.4 162.6c-1.5.1-3.5.2-4 2 0 .6-1 1.7-.5 2.1 2-.6 4.5.3 6.5-.7.5-1-.2-2.3-.3-3.4h-1.7zM407.6 154.2c-1.4-.2-3.3 0-3.4 1.8-.2.8-.8 1.5-1.2 2.1 1.9 0 3.8.3 5.5.9.9-.7.2-2.2.5-3.1.1-1.6.7-2-1.4-1.7zM406.5 146.3c-1.5.5-2.1 2.3-3.2 3.4 2-.4 4 1.1 5.8 1.7 0-1.2.9-2.3 1-3.4-.8-1-2.4-1.4-3.6-1.7zM410.5 138.4l-3.8 3c.4.8 1.9.2 2.5.9.9.1 1.4 1.6 2.1 1.4.6-.9 3.4-2 2.1-2.9-1-.8-1.8-1.7-2.9-2.4zM417.2 131.5c-1.4 1.1-2.8 2.3-4.4 3-1.1.7.5.5.9.8 1.1.5 2.2 1.3 3.1 2 1.1-.5 2-1.5 3-2.2-1-1-1.4-2.8-2.6-3.6zM425.2 128.5l-4 1.4c1.2 1 2.1 2.2 2.6 3.6 1.1 0 2.4-.8 3.2-1.5-.5-1.1-.8-2.6-1.7-3.5zM430.5 128c-1.2 0-.3 1.5.1 2 .3.9.4 3 1.9 2 .5-.3 1.7-.2 1.2-1.3-.5-.8-.2-1.7.1-2.4a31 31 0 0 0-3.3-.2zM438 129.5c.1.9.4 2-.1 2.9-.6 1 .4 1.5 1.2 1 1.4-.1 2.2-2 1.5-3.2-1 .2-1.7-.6-2.7-.7zM444.3 134.6c-.3.5-1 2.3.1 2 .9-.7 3.1-1.7 1.4-2.6-1-1.3-.9-.5-1.5.6z" style="fill:#fff;stroke-width:.0632269;stroke-linecap:round;stroke-linejoin:round;stroke-miterlimit:6.6;paint-order:stroke fill markers" transform="matrix(3.7795 0 0 3.7795 -1391 -228)"/><path d="M449 137.4c-.7.1-1 .8-1.4 1.2l-1 1c.4.6 1 1 1.6 1.6l.8-.6 1.3-1c.3-.2.5-.6.2-.8l-1.4-1.4h-.1zm0 .2c.2.2.3.5.6.6.1.3.5.5.5 1 0 .2-.4.5-.6.2-.3-.4-.8-.7-1-1.1 0-.3.2-.6.4-.7zM449.1 143.1c-.5.2-.8.7-1 1.1-.3.5.1 1 .3 1.4.3.4.6.9.5 1.4 0 .3.2.2.3 0 .4-.4.4-1 1-1.4l1.4-1c.2-.4-.4-.5-.7-.7-.4-.2-.7-.6-1.1-.7a2 2 0 0 0-.7 0zm1.3 1.8c.2.2-.2.4-.4.4 0 0-.4-.2-.2-.2l.6-.2zM448.5 148l-.9 1.5c0 .5.3 1 .4 1.4.1.4.5.8 1 .8.2-.2 0-.6 0-.9 0-.5 0-1.2.5-1.6.4 0 .9-.1 1.1-.4-.3-.3-.7-.3-1-.5l-1-.3zM447.2 152.5c-.7 0-1.2.5-1.6 1 .2.4.5.8.8 1 .6.2 1.1-.2 1.4-.7.2-.3.6-.7.2-1-.2-.4-.4-.3-.8-.3z" style="fill:#fff;stroke-width:.0158067;stroke-linecap:round;stroke-linejoin:round;stroke-miterlimit:6.6;paint-order:stroke fill markers" transform="matrix(3.7795 0 0 3.7795 -1391 -228)"/><path d="M435.2 143.4c-.4.2-.1.7 0 1l.4.7c.3.2.8 0 1.1.3.3 0 .4-.3.5-.6.1-.4-.3-.7-.7-.8l-.5-.5h-.8zM432 144.1c-.3 0-.8 0-.8.5 0 .7.6 1 1.1 1.2.3.2.8.4 1 .1.2-.1.5-.3.4-.5 0-.4-.2-.8-.5-.9-.3-.2-.6-.4-1-.4h-.1zM429.4 145.7c-.4 0-.5.5-.9.7-.3.2 0 .6.3.7.2.1.2.5.5.5.3.2.7.5 1.2.4a1 1 0 0 0 0-1.2c-.5-.3-.5-1-1-1.1zM427.6 149a2 2 0 0 0-.6.6c-.2.2-.4.4-.3.6 0 .2 0 .5.3.5.3.1.6.2.7.5.4.1.6.4.9.5.2 0 .2-.4.4-.6.3-.4.3-1 .1-1.4-.2-.2-.5-.5-1-.5-.2 0-.2-.4-.4-.2h-.1zM427.3 153l-1 1v1.3c.3.2.8 0 1.1 0 .5 0 .8-.3 1.3-.4.3 0 .6-.5.4-.8l-.7-1-.5.2c-.2.2-.5 0-.6-.2zM429.6 157.9c-.3 0-.6.2-.9.4-.3.2-.7.2-1 .3-.3.2-.5.5-.5.8l.1 1 .5.8c.4-.1.6-.5.8-.8.1-.4.6-.3.9-.6.3-.3 1-.4 1.1-.9.1-.4-.3-.6-.5-.9a1 1 0 0 0-.5-.1zM431.9 161.7c-.4 0-1 0-1.2.5-.3.4.1.8 0 1.2 0 .6.2 1.3.6 1.7.1.2.2.6.5.4l.5-.7.5-.9.8-1c.4 0-.1-.3-.3-.5l-.5-.4c-.3-.2-.6-.3-1-.3zM436.5 164.9c-.5 0-.9.4-1 .8-.2.5-.5 1-.1 1.3l.6.9c.4.1.6.4 1 .6 0 0 0 .3.2 0s.1-.9.3-1.3c0-.4.4-.6.6-.9 0-.2.4-.2.4-.5 0-.1 0-.4-.2-.4-.7 0-1.1-.6-1.8-.5zM442.6 167l-1 .3-.5.6c0 .4 0 .8.4 1.1 0 .3.4.3.5.6l.6.4 1 .5c.2.1 0-.3 0-.4 0-.4-.2-1 0-1.4.2-.2.5-.3.4-.6 0-.3.2-.8-.2-1l-1.2-.1zM449.7 167.6c-.7.2-1.4.1-2 .3-.2 0-.5.2-.6.4 0 .3.4.4.4.6 0 .4.6.4.7.8l.8.5c.3 0 .4.4.7.4.2 0 .3.2.3.4h1.4l-.5-.4-.1-1c-.4 0-.4-.3-.6-.5-.3-.3-.2-.8-.3-1.1 0-.1 0-.3-.2-.4zM456.4 165.3l-1 .8c-.3.3-.7.4-1.1.4-.4 0-.7.3-1 .3-.3.1-.2.6 0 .6.4.1.4.5.8.5l.9.6 1 .7c.4.1.8.2 1.3.1a3 3 0 0 0 1.2-.3l.8-.3-1.3-1.2c-.4-.4-.9-.8-1-1.4-.2-.2-.6-.3-.6-.6v-.2zM462.1 161.2c-.3 0-.5.2-.6.5l-.6.8c-.1.2-.4.2-.4.4-.3.4-.9.3-1.2.6 0 .2.3.2.4.3.2.1.3.4.6.5l1.2 1c.2 0 .3.3.5.3.3.2.4.5.7.6.3.2.6.2.8 0 .3-.1.4-.3.5-.4.7-.4 1.2-.9 1.9-1.1.3-.2 0-.5-.2-.7-.4-.3-.8-.8-1.3-1l-.6-.7-.6-.5c-.3-.2-.6-.6-1-.6zM466.7 154.8c-.2.1-.3.4-.4.6-.2.4-.3.8-.6 1.1l-.4.8c0 .3-.3.5-.5.8.2 0 .5.3.6.5.4.2.8.6 1.2 1 .4.3.8.5 1.1.9l.7.5c.3.2.5.6 1 .5l1-1.7c.3-.7.8-1.3 1.2-2 0-.2.4-.4.3-.7-.3-.2-.7 0-1-.3-.4-.2-1-.2-1.4-.6-.4-.1-.8-.2-1.1-.5-.5-.3-1-.4-1.5-.8h-.2z" style="fill:#fff;stroke-width:.0111771;stroke-linecap:round;stroke-linejoin:round;stroke-miterlimit:6.6;paint-order:stroke fill markers" transform="matrix(3.7795 0 0 3.7795 -1391 -228)"/><path d="M468.5 147.4c0 1.1-1.2 2.6-.3 3.6 1.7.2 3.4.7 5 1.6 1.1-1.3.8-3.4 1-5 0-1-2.1 0-3-.4-.9.1-2.8-1.1-2.7.2zM473.6 136.4c-2 .9-4.2.5-6.2 1 0 .7.7 1.2.5 2 .6 1 0 3.3 1.8 2.9 1.6-.3 3.5.3 5-.5 0-1.8-1-3.6-1-5.4zM469.5 125c-2 .8-3.9 2-6 2.6 0 1.5 1.5 2.7 2.2 4 .4.7 1.1 1.9 2 1 1.4-.9 3-1.5 4.5-1.8-.9-1.9-1.5-4-2.6-5.7zM461.4 116.3c-1 1.6-2.8 2.8-3.8 4.3l2.9 3.4a16 16 0 0 1 5.5-3.7c-1-1.8-2.7-3.2-4-4.8l-.6.8zM452.5 109c-1.1 1.9-1.9 4.2-2.8 6.3.4 1 1.9.6 2.7 1 .9.6 2.2.6 2.5-.6l2.6-4.4c-.5-1.4-2.6-1.4-3.8-2.1l-1.2-.2zM446.3 104a46 46 0 0 1-4.9.2c-.1 2.5-.2 5.2-.6 7.6 1.8.3 3.6 0 5.4.1-.1-2.6.8-5 1.4-7.6-.2-.4-1-.3-1.3-.3zM435.7 101l-5.6 1c.3 1.8.8 3.6.7 5.5.3.7-.3 2.2.4 2.5 1.6-.3 3.3-.8 4.8-1 .5-2-.8-4.2 0-6.2 0-.5.8-2.2-.3-1.9zM423.6 100.1c-1.9.6-4 1-5.6 2.2l2.5 7.5c2-.5 4.1-1 6-1.8-.9-2.3-2-4.7-2.5-7.2 0-.2-.1-.7-.4-.7zM411 101.8a23 23 0 0 1-6.2 3 22 22 0 0 1 4.8 7.6c1.1-.1 1.9-1.4 3-1.7.9-.7 2.4-.7 2.9-1.6-1.6-2.3-3.3-4.6-4.2-7.3h-.3zM399.1 107.7c-2.4 1.1-4.6 2.7-7 3.8-1 .6.8.5 1 1 1.8 1.5 4 3 5.1 5 1-.5 1.9-1.8 3-2.4.9-.8 2.9-1.3 3.1-2l-5.1-5.4zM387 117.7c-2.5 1.5-5.2 3-7 5.2 1.3.8 3.2 1 4.5 2 1.3.6 2 2 3.2 2.6 1-2.5 3.7-3.8 5.8-5.3l-6.1-4.4-.5-.1zM378.5 131a29.4 29.4 0 0 0-6.6 6c1.5.6 3.5.6 5 1.6 1.2.6 2.2 1.4 3 2.4 1.4-2.3 3.2-4.4 5.2-6.1.2-1-1.5-1.2-2-1.7-1.5-.8-3-1.7-4.6-2.2zM373.4 146.3c-1.9.6-2.6 3-3.9 4.4-.4.9-1.4 1.8-1.5 2.8 2.4.1 5 .4 7 1.9.7.1 1.1 1.3 1.8 1.2 1-2.8 2.5-5.3 4.6-7.3a35.4 35.4 0 0 0-8-3zM371.3 164.4c.7 2.6-.5 5.3-.1 7.9 2.8-.6 5.9 0 8.6.8.4-2.3-.4-5 .7-7.2.1-.6 1.1-2.2-.2-2.1-3.2-.4-6.3-1-9.4-1.5l.4 2.1zM376.3 179.8c1 3 .8 6.3.8 9.5 2.8-1.2 6 0 8.9.5-1.3-3.3-.4-6.7.2-10-.5-1-2-.3-3-.6l-7.2-.4.3 1zM392.4 196c-3.1.7-6.3 2-8.7 4 3.3 1.2 6.5 3.1 8.8 6 .7-.5 1-2 1.7-2.5 1.6-1.6 4-2.1 5.9-3-1.5-2-3.4-3.5-5-5.2l-2.7.6zM406.5 206.6c-2.4 1-4.7 2.4-7.2 3 1 1.2 2 2.5 2.2 4.1.3 1.5.2 3.3.5 4.7 3 .4 6 .4 9 1.3 1 0 0-1.5.1-2-.5-2-.7-4.4 1.2-5.7.7-.2 1.4-1.1.3-1.5-2-1.3-3.9-3-6-3.9zM420.5 215.7c-.6.8-.2 2.2-.6 3.1.1 1.2-1 1.4-1.8 1-.4-.3-1.8-.4-.9.3 1.1.8 3 1 2.6 2.9l.6 4.6c3.4.2 6.8.6 10.1 1.4.5.3 1.4.4 1-.4-1.1-3.1-2.1-6.6-.8-9.8-.4-1-2-1-2.8-1.1-2.6-.4-5-1.4-7.4-2zM438.9 221.9c0 1.2.7 3.2.2 4-1 .2-2.2-.2-3 .2 1.1 1 3.1.5 3.7 2.2.6 1.2 1 2.7 1.5 3.8 3.7.6 7.6 0 11.2.5.3-1-.8-2.1-1-3.1-1.4-2.4-1.7-5.1-2.4-7.7-3.4-.5-7-.7-10.4-1.3l.2 1.4zM468 221.5a61 61 0 0 1-10.3 1c-.2 1.8 1.6 3.4 1.4 5.2-.8.7-2.1-.3-2.8.2 1.3 1.1 3.7 0 4.4 2 1 1.2 1.5 3 2.9 4 3.7-.8 7.5-1.2 11.2-2-2.5-3-5.2-6-6.2-9.8.1-.5-.3-.7-.7-.6zM487.6 217.2c-3.3 1.5-6.8 2.5-10.2 3.5.7 1.8 2 3.5 2.5 5.4.9.8-1.9-.2-1.3 0-1-.2-2.4-.1-3.3.4 1.9.5 4 0 5.7.4 1.7 1.4 3 3.5 5 4.5 3.8-1.3 7.6-2.5 11.2-4.3-2.2-.9-4.2-2.8-5.8-4.6-1.4-1.6-2.4-3.7-3.8-5.3zM504.7 210.7c-2.2 1.6-4.8 2.7-7.3 3.9l4 5.3c2.5 1.4 4.6 3.6 7 5 3.3-2 6.2-4.8 9.8-6.4 1.5-.5-.7-1-1-1.3-4-2-7.5-4.6-10.2-8l-2.3 1.5zM524.6 195.8c-3 3-5.9 6-9.1 8.6 1.8 1.2 4 2.2 5.9 3.6 2.5 1.4 4.8 3.2 7 5 2.5-3.3 5.9-5.8 9.4-7.8 1-1.1-1.3-1.6-2-2-4-2-8-4.3-11.2-7.4zM536.4 178.9c-1.3 1.5-2 3.5-3.3 5-1 1.6-2.5 3.1-2.7 5 2.9 1.7 6.4 2.2 9.3 3.7 2 .8 3.9 2.1 5.9 2.6 2.3-2.8 3.8-6.4 6.7-8.8 1.3-.8-.5-1.1-1-1.3-5.2-1.7-10.1-3.9-14.9-6.3zm-4 10.1c.7 0 .7 1 0 .6-.4 0-.5-.7 0-.6zM542 159.7c-1 .6-.4 2.3-.9 3.3-.5 2.7-1.8 5.2-2.1 7.8 1 .7 2.6 0 3.8.5 4 .6 8.1 1.4 12 2.4 1.2-2.6 1.4-5.6 2.4-8.4 0-.9 1-2.1.5-3-4.8-.6-9.7-1-14.5-2.4l-1.1-.2zM558.1 139.9h-14.7c0 4 0 7.7-.4 11.5 5.4-.1 11 .1 16.3-.4.3-3.7.2-7.4.3-11.1h-1.5zM554.7 116.5c-4.6 1.1-9 2.7-13.7 3.3-1.5-.1-.4 1.5-.3 2.2.5 1.5.7 3 1.3 4.3.3 1.7.2 3.5.8 5 5-.5 10-2.1 15-3 1.1.1 1.5-1 .8-1.8a76.3 76.3 0 0 1-3.2-9.8c-.2-.2-.5-.2-.7-.2zM543.9 94.1c-3.9 2.2-8 3.8-12 5.5-.3 1 1 2 1.3 2.8 2 2.6 3 5.8 4.1 8.9 4.2-1.2 8.2-3.5 12.4-4.9.8-.2 2.4-.7 1.4-1.8-2-3.3-3.7-6.7-4.9-10.3-.6-1.4-1.3-.9-2.3-.2z" style="fill:#fff;stroke-width:.0632269;stroke-linecap:round;stroke-linejoin:round;stroke-miterlimit:6.6;paint-order:stroke fill markers" transform="matrix(3.7795 0 0 3.7795 -1391 -228)"/></g></svg>